<svg width="139" height="34" viewBox="0 0 139 34" fill="none" xmlns="http://www.w3.org/2000/svg">
<mask id="mask0_375_5806" style="mask-type:luminance" maskUnits="userSpaceOnUse" x="0" y="3" width="139" height="24">
<path d="M138.009 3.09131H0V26.9889H138.009V3.09131Z" fill="white"/>
</mask>
<g mask="url(#mask0_375_5806)">
<path fill-rule="evenodd" clip-rule="evenodd" d="M14.7656 20.8151C13.7316 22.6258 13.7764 24.7669 14.6985 26.477C14.8175 26.6978 14.6673 26.9828 14.4187 26.9828H6.94995C3.1116 26.9828 0 23.8368 0 19.9559C0 16.075 3.1116 12.929 6.94995 12.929C7.14378 12.929 7.33576 12.937 7.52557 12.9527C7.66851 12.9646 7.78044 13.0797 7.79808 13.2238C7.98127 14.7185 8.24064 15.6085 8.45004 16.121C8.51366 16.2767 8.62067 16.2231 8.57552 16.0608C8.39301 15.4056 8.16969 14.3323 8.18541 13.0407L8.18643 13.0398L8.18746 13.039C8.29402 7.5267 12.7469 3.09131 18.2243 3.09131C21.0259 3.09131 23.5595 4.25165 25.3805 6.12293C25.5591 6.30651 25.4377 6.61443 25.1871 6.66021C23.5899 6.95208 22.1253 7.92631 21.2502 9.45909L14.7656 20.8151Z" fill="#079C71"/>
<path d="M31.3311 26.9828C33.5472 26.9828 35.3438 25.1651 35.3438 22.9228C35.3438 20.6805 33.5472 18.8628 31.3311 18.8628C29.1149 18.8628 27.3184 20.6805 27.3184 22.9228C27.3184 25.1651 29.1149 26.9828 31.3311 26.9828Z" fill="#079C71"/>
<path d="M16.9016 22.054C16.0066 23.6224 16.5377 25.6279 18.0879 26.5335C19.638 27.439 21.6202 26.9016 22.5152 25.3332L28.9972 13.9736C29.8922 12.4052 29.3611 10.3996 27.8109 9.49408C26.2608 8.58855 24.2786 9.12593 23.3836 10.6944L16.9016 22.054Z" fill="#079C71"/>
<path d="M55.8763 12.0806V10.1561H60.0351V26.4658H55.8763V24.5412C54.6297 26.1286 52.878 26.9224 50.6212 26.9224C48.472 26.9224 46.6236 26.096 45.0761 24.4434C43.55 22.7689 42.7871 20.7247 42.7871 18.3109C42.7871 15.9188 43.55 13.8856 45.0761 12.2111C46.6236 10.5366 48.472 9.6994 50.6212 9.6994C52.878 9.6994 54.6297 10.4931 55.8763 12.0806ZM48.2033 21.6381C49.0415 22.4862 50.1054 22.9102 51.395 22.9102C52.6846 22.9102 53.7484 22.4862 54.5867 21.6381C55.4464 20.7683 55.8763 19.6592 55.8763 18.3109C55.8763 16.9626 55.4464 15.8645 54.5867 15.0164C53.7484 14.1466 52.6846 13.7116 51.395 13.7116C50.1054 13.7116 49.0415 14.1466 48.2033 15.0164C47.365 15.8645 46.946 16.9626 46.946 18.3109C46.946 19.6592 47.365 20.7683 48.2033 21.6381ZM67.5169 14.788C67.5169 15.4839 68.4949 16.0818 70.4507 16.5821C71.1385 16.7343 71.7618 16.9192 72.3206 17.1366C72.8794 17.3323 73.4383 17.6259 73.997 18.0173C74.5774 18.387 75.0287 18.8871 75.3511 19.5178C75.6735 20.1485 75.8347 20.877 75.8347 21.7033C75.8347 23.3778 75.2115 24.6717 73.9648 25.5851C72.7182 26.4766 71.1815 26.9224 69.3546 26.9224C66.0446 26.9224 63.7879 25.6285 62.5843 23.0407L66.1951 20.9857C66.6895 22.3992 67.7426 23.1059 69.3546 23.1059C70.8376 23.1059 71.5791 22.6383 71.5791 21.7033C71.5791 21.0074 70.6012 20.4095 68.6453 19.9093C67.9145 19.7135 67.2912 19.5178 66.7754 19.3221C66.2596 19.1264 65.7008 18.8437 65.099 18.474C64.4972 18.0826 64.035 17.5933 63.7126 17.0061C63.4118 16.3973 63.2613 15.6905 63.2613 14.8859C63.2613 13.2767 63.8416 12.0154 65.0023 11.102C66.1844 10.1669 67.6459 9.6994 69.3868 9.6994C70.698 9.6994 71.8908 10.0038 72.9654 10.6127C74.04 11.1999 74.889 12.048 75.5123 13.1571L71.9659 15.1143C71.4502 14.0051 70.5904 13.4507 69.3868 13.4507C68.8496 13.4507 68.3982 13.5811 68.0328 13.842C67.6889 14.0813 67.5169 14.3966 67.5169 14.788ZM87.2574 10.1561V14.2009H83.6145V20.9857C83.6145 21.5511 83.7542 21.9643 84.0336 22.2252C84.313 22.4862 84.7214 22.6383 85.2587 22.6819C85.796 22.7036 86.4626 22.6928 87.2574 22.6493V26.4658C84.442 26.792 82.4324 26.531 81.2287 25.6829C80.0467 24.813 79.4556 23.2473 79.4556 20.9857V14.2009H76.6507V10.1561H79.4556V6.86151L83.6145 5.58936V10.1561H87.2574ZM101.081 18.9633V10.1561H105.24V26.4658H101.081V24.6391C100.092 26.1613 98.4902 26.9224 96.2767 26.9224C94.515 26.9224 93.0528 26.3243 91.8928 25.1284C90.7527 23.9105 90.184 22.2579 90.184 20.1702V10.1561H94.3427V19.6483C94.3427 20.7138 94.6214 21.5402 95.1807 22.1273C95.7616 22.7146 96.5455 23.0081 97.5341 23.0081C98.6309 23.0081 99.4905 22.671 100.114 21.9969C100.758 21.301 101.081 20.2898 101.081 18.9633ZM118.27 10.1561V14.2009H114.626V20.9857C114.626 21.5511 114.766 21.9643 115.045 22.2252C115.325 22.4862 115.733 22.6383 116.27 22.6819C116.807 22.7036 117.474 22.6928 118.27 22.6493V26.4658C115.453 26.792 113.444 26.531 112.241 25.6829C111.059 24.813 110.467 23.2473 110.467 20.9857V14.2009H107.662V10.1561H110.467V6.86151L114.626 5.58936V10.1561H118.27ZM134.431 24.4434C132.798 26.096 130.778 26.9224 128.37 26.9224C125.964 26.9224 123.943 26.096 122.31 24.4434C120.676 22.7907 119.86 20.7464 119.86 18.3109C119.86 15.8971 120.676 13.8638 122.31 12.2111C123.965 10.5366 125.985 9.6994 128.37 9.6994C130.756 9.6994 132.777 10.5366 134.431 12.2111C136.086 13.8856 136.913 15.9188 136.913 18.3109C136.913 20.7247 136.086 22.7689 134.431 24.4434ZM125.243 21.5402C126.082 22.3883 127.124 22.8123 128.37 22.8123C129.617 22.8123 130.66 22.3883 131.498 21.5402C132.336 20.6922 132.755 19.6157 132.755 18.3109C132.755 17.0061 132.336 15.9297 131.498 15.0816C130.66 14.2335 129.617 13.8094 128.37 13.8094C127.124 13.8094 126.082 14.2335 125.243 15.0816C124.427 15.9514 124.018 17.0279 124.018 18.3109C124.018 19.5939 124.427 20.6704 125.243 21.5402Z" fill="#161C22"/>
</g>
</svg>
