<svg width="76" height="40" viewBox="0 0 76 40" fill="none" xmlns="http://www.w3.org/2000/svg">
<g clip-path="url(#clip0_375_5805)">
<path fill-rule="evenodd" clip-rule="evenodd" d="M25.6139 24.8586V4.32422C22.1976 6.46454 19.9258 10.2627 19.9258 14.5914C19.9258 18.9202 22.1976 22.7183 25.6139 24.8586Z" fill="#F7CB45" fill-opacity="0.6"/>
<path fill-rule="evenodd" clip-rule="evenodd" d="M25.6168 24.8592L17.5934 5.95716C15.2849 9.2622 14.6778 13.6461 16.3691 17.6307C18.0605 21.6153 21.6358 24.2239 25.6168 24.8592Z" fill="#F7CB45" fill-opacity="0.6"/>
<path fill-rule="evenodd" clip-rule="evenodd" d="M25.6144 24.8583L11.0944 10.3382C10.1921 14.2674 11.2714 18.5595 14.3323 21.6204C17.3932 24.6812 21.6852 25.7605 25.6144 24.8583Z" fill="#F7CB45" fill-opacity="0.6"/>
<path fill-rule="evenodd" clip-rule="evenodd" d="M25.614 24.859L7.00351 16.1807C7.49949 20.1815 9.98168 23.8456 13.9049 25.675C17.828 27.5045 22.2304 27.0507 25.614 24.859Z" fill="#F7CB45" fill-opacity="0.6"/>
<path fill-rule="evenodd" clip-rule="evenodd" d="M25.6129 24.8583L5.15659 26.648C7.58652 29.8648 11.5682 31.7969 15.8805 31.4196C20.1927 31.0423 23.7784 28.4482 25.6129 24.8583Z" fill="#F7CB45" fill-opacity="0.6"/>
<path fill-rule="evenodd" clip-rule="evenodd" d="M18.0484 37.2702L19.5869 34.2653C20.8871 34.5691 22.2435 34.4634 23.5536 34.0119C22.1023 35.111 19.6644 37.1735 18.0484 37.2702Z" fill="url(#paint0_linear_375_5805)"/>
<path d="M42.5416 17.4621C38.5391 16.3897 32.1409 14.4144 29.8105 15.0242C26.0605 16.0054 25.9014 20.3535 24.4994 23.4389C22.5595 27.7079 19.532 34.3702 19.532 34.3702C20.8322 34.6741 22.1885 34.5684 23.4987 34.1168C25.1384 33.5518 26.7057 32.4451 27.9999 30.922C28.9616 29.7901 30.0124 28.4276 30.5902 26.8871C31.5384 23.3484 31.1811 22.8735 31.54 21.4635C32.8795 16.4642 35.3197 16.4045 42.5416 17.4621Z" fill="url(#paint1_linear_375_5805)"/>
<path d="M31.5066 17.1165C31.5378 17.3732 31.1039 17.5499 30.7463 17.5934C30.3887 17.6369 30.1581 17.5425 30.1269 17.2858C30.0957 17.0291 30.2799 16.8602 30.6376 16.8167C30.9952 16.7732 31.4754 16.8598 31.5066 17.1165Z" fill="black"/>
</g>
<path d="M46.0624 30.8366C45.824 30.8743 45.6045 30.8931 45.4037 30.8931C45.203 30.9056 44.9082 30.8617 44.5192 30.7614C44.3185 30.6986 44.1742 30.6234 44.0864 30.5355C44.0111 30.4477 43.8794 30.2846 43.6912 30.0462C43.5532 29.8455 43.4528 29.6573 43.3901 29.4817C43.3399 29.3186 43.3336 29.1868 43.3713 29.0865C43.4089 28.9986 43.4905 28.9736 43.6159 29.0112C43.6536 29.0237 43.71 29.0614 43.7853 29.1241C43.8731 29.1994 43.9547 29.2872 44.0299 29.3876C44.2056 29.5758 44.4189 29.7012 44.6698 29.764C44.9207 29.8267 45.2532 29.833 45.6672 29.7828C45.8428 29.7451 46.0561 29.6887 46.3071 29.6134C46.558 29.5507 46.8026 29.4691 47.041 29.3688C47.2794 29.2684 47.4676 29.168 47.6056 29.0676C48.2705 28.616 48.8037 28.2584 49.2052 27.995C49.6067 27.7315 49.8074 27.5998 49.8074 27.5998C49.8325 27.5496 49.8764 27.5119 49.9391 27.4868C50.0144 27.4492 50.1022 27.4116 50.2026 27.3739C50.2779 27.2987 50.3971 27.1795 50.5601 27.0164C50.7358 26.8533 50.8989 26.6902 51.0494 26.5271C51.2125 26.364 51.3129 26.2699 51.3505 26.2448C51.3756 26.1319 51.4007 26.0441 51.4258 25.9813C51.4509 25.9061 51.4635 25.8308 51.4635 25.7555C51.5638 25.6551 51.6956 25.4481 51.8587 25.1345C52.0343 24.8083 52.2099 24.4507 52.3856 24.0618C52.5612 23.6603 52.6867 23.2965 52.762 22.9703C52.9376 22.0921 52.9815 21.3519 52.8937 20.7496C52.8059 20.1474 52.624 19.633 52.348 19.2065C52.0845 18.7674 51.752 18.3784 51.3505 18.0397C51.2125 17.9268 51.0181 17.8076 50.7672 17.6821C50.5288 17.5441 50.2779 17.4249 50.0144 17.3246C49.7509 17.2242 49.5188 17.1427 49.3181 17.0799C49.1299 17.0172 49.017 16.9921 48.9794 17.0047C48.9292 17.0172 48.8225 17.2179 48.6594 17.6069C48.5089 17.9832 48.327 18.4663 48.1137 19.0559C47.9004 19.6456 47.6683 20.2729 47.4174 20.9378C47.179 21.6028 46.9532 22.2301 46.7399 22.8197C46.6646 23.0581 46.5831 23.309 46.4952 23.5725C46.4074 23.836 46.3321 24.0681 46.2694 24.2688C46.2067 24.457 46.1753 24.5824 46.1753 24.6452C46.0373 24.8585 45.9244 25.1407 45.8366 25.492C45.7613 25.8433 45.6735 26.4267 45.5731 27.2422C45.4602 27.6688 45.3786 27.995 45.3285 28.2208C45.2783 28.4341 45.2281 28.5344 45.1779 28.5219C45.1779 28.5219 45.1716 28.5282 45.1591 28.5407C45.1591 28.5407 45.1403 28.5595 45.1026 28.5972C45.1026 28.6724 45.0524 28.7101 44.9521 28.7101C44.8517 28.7101 44.7325 28.685 44.5945 28.6348C44.4691 28.5721 44.3687 28.5031 44.2934 28.4278C44.2558 28.2898 44.2307 28.1581 44.2181 28.0326C44.2181 27.9071 44.2683 27.6625 44.3687 27.2987C44.4314 27.0603 44.5067 26.7717 44.5945 26.433C44.6949 26.0817 44.8015 25.7241 44.9144 25.3603C45.0274 24.9839 45.134 24.6389 45.2344 24.3253C45.3347 24.0116 45.41 23.7732 45.4602 23.6101C45.548 23.3969 45.6735 22.9954 45.8366 22.4057C45.9369 22.0795 46.0373 21.7533 46.1377 21.4271C46.2506 21.1009 46.3572 20.8124 46.4576 20.5615C46.558 20.298 46.627 20.1286 46.6646 20.0533C46.7273 19.8902 46.8214 19.6142 46.9469 19.2253C47.0724 18.8364 47.2355 18.4035 47.4362 17.9268L47.5679 17.3058L47.3609 17.2117C47.2104 17.2619 47.0912 17.2807 47.0034 17.2681C46.9281 17.243 46.8779 17.2242 46.8528 17.2117C46.7775 17.2368 46.6709 17.2179 46.5329 17.1552C46.3949 17.0925 46.2694 17.0109 46.1565 16.9106C46.0561 16.8102 45.9934 16.7224 45.9683 16.6471C45.9432 16.5969 45.9244 16.5342 45.9119 16.4589C45.9119 16.3711 45.9119 16.3272 45.9119 16.3272C45.9244 16.2519 46.0185 16.1829 46.1941 16.1202C46.3698 16.0449 46.5956 15.9822 46.8716 15.932C47.1602 15.8818 47.4676 15.8504 47.7938 15.8379C48.1325 15.8128 48.4587 15.8128 48.7723 15.8379C49.0985 15.863 49.4059 15.932 49.6945 16.0449C49.983 16.1578 50.2967 16.277 50.6354 16.4024C51.0369 16.553 51.4572 16.8165 51.8963 17.1928C52.348 17.5567 52.7557 17.9895 53.1195 18.4914C53.4959 18.9932 53.7468 19.5201 53.8723 20.0722C53.9099 20.2227 53.9476 20.436 53.9852 20.712C54.0228 20.988 54.0417 21.2578 54.0417 21.5212C54.0542 21.7721 54.0291 21.9352 53.9664 22.0105C53.9413 22.0607 53.9225 22.1234 53.9099 22.1987C53.9099 22.2614 53.935 22.3053 53.9852 22.3304C53.9727 22.3681 53.9288 22.5124 53.8535 22.7633C53.7782 23.0017 53.7092 23.2087 53.6465 23.3843C53.6214 23.7105 53.5461 24.0492 53.4206 24.4005C53.2952 24.7518 53.1572 25.0843 53.0066 25.3979C52.8561 25.699 52.7181 25.9562 52.5926 26.1695C52.5424 26.1695 52.4922 26.1821 52.442 26.2072C52.4044 26.2197 52.4107 26.2322 52.4609 26.2448C52.4609 26.3075 52.3919 26.4267 52.2539 26.6024C52.2037 26.64 52.1221 26.7341 52.0092 26.8846C51.9088 27.0226 51.8273 27.1167 51.7646 27.1669C51.752 27.2547 51.7144 27.33 51.6517 27.3928C51.5889 27.4429 51.5325 27.468 51.4823 27.468C51.4823 27.468 51.4697 27.468 51.4446 27.468C51.4321 27.468 51.4258 27.4931 51.4258 27.5433C51.3255 27.6939 51.1686 27.8758 50.9553 28.0891C50.7421 28.2898 50.4974 28.5031 50.2214 28.7289C49.9579 28.9422 49.6819 29.1429 49.3934 29.3311C49.1174 29.5193 48.8539 29.6636 48.603 29.764C48.4775 29.8518 48.3458 29.9208 48.2078 29.971C48.0698 30.0337 47.938 30.0964 47.8126 30.1592C47.7498 30.2093 47.6118 30.2783 47.3986 30.3662C47.1853 30.4665 46.9532 30.5606 46.7023 30.6484C46.4639 30.7363 46.2506 30.799 46.0624 30.8366ZM55.0724 28.4466C54.9721 28.3463 54.8968 28.2208 54.8466 28.0702C54.809 27.9197 54.7964 27.7691 54.809 27.6186C54.8215 27.468 54.8529 27.3426 54.9031 27.2422C54.9031 27.1418 54.9156 27.0666 54.9407 27.0164C54.9784 26.9536 54.9909 26.8972 54.9784 26.847C54.9658 26.7968 54.9784 26.709 55.016 26.5835C55.0536 26.4581 55.0913 26.3389 55.1289 26.226C55.2167 26.0252 55.3108 25.7869 55.4112 25.5109C55.5116 25.2223 55.6057 24.94 55.6935 24.664C55.7813 24.388 55.8566 24.1496 55.9193 23.9489C55.982 23.7481 56.0197 23.6227 56.0322 23.5725C56.0322 23.4219 56.1326 23.3404 56.3333 23.3278C56.4839 23.2777 56.5968 23.2777 56.6721 23.3278C56.7473 23.3655 56.8477 23.4847 56.9732 23.6854C57.0735 23.7858 57.1112 23.9363 57.0861 24.1371C57.061 24.3378 56.9794 24.5887 56.8414 24.8898C56.7913 24.9902 56.7285 25.1345 56.6532 25.3227C56.5905 25.5109 56.5466 25.6802 56.5215 25.8308C56.4713 25.9311 56.4086 26.0754 56.3333 26.2636C56.2706 26.4393 56.2141 26.6086 56.164 26.7717C56.1389 26.8345 56.1138 26.9286 56.0887 27.054C56.0636 27.1669 56.0322 27.2924 55.9946 27.4304C55.9569 27.5559 55.9068 27.6688 55.844 27.7691C55.7311 28.2835 55.6245 28.5846 55.5241 28.6724C55.4363 28.7603 55.2857 28.685 55.0724 28.4466ZM56.8979 20.8061C56.8352 20.7434 56.7787 20.6555 56.7285 20.5426C56.6783 20.4172 56.647 20.3043 56.6344 20.2039C56.6219 20.091 56.6344 20.0345 56.6721 20.0345C56.7724 20.022 56.8916 19.9153 57.0296 19.7146C57.1676 19.5139 57.2241 19.3382 57.199 19.1877C57.199 19.1375 57.2178 19.0936 57.2555 19.0559C57.2931 19.0057 57.337 18.9744 57.3872 18.9618C57.5377 18.8615 57.682 18.8489 57.82 18.9242C57.9706 18.9869 58.1086 19.1187 58.234 19.3194C58.347 19.5578 58.3783 19.7585 58.3281 19.9216C58.278 20.0722 58.1399 20.2854 57.9141 20.5615C57.7259 20.8124 57.5503 20.9504 57.3872 20.9755C57.2366 21.0006 57.0735 20.9441 56.8979 20.8061ZM62.7416 31.0436C62.6664 31.0938 62.5785 31.0813 62.4782 31.006C62.3904 30.9307 62.2586 30.7927 62.083 30.592C61.9952 30.4916 61.9387 30.385 61.9136 30.2721C61.8885 30.1592 61.8948 29.9459 61.9324 29.6322C61.9826 29.4942 62.0077 29.3625 62.0077 29.237C62.0202 29.1116 62.0265 29.0237 62.0265 28.9736C62.0265 28.8983 62.0453 28.7226 62.083 28.4466C62.1332 28.1706 62.1833 27.882 62.2335 27.5809C62.2837 27.2673 62.3276 27.0289 62.3653 26.8658C62.3653 26.8533 62.3715 26.8219 62.3841 26.7717C62.3966 26.7215 62.4092 26.6776 62.4217 26.64C62.4468 26.5271 62.4782 26.3765 62.5158 26.1883C62.566 26.0001 62.6099 25.768 62.6475 25.492C62.7103 25.2537 62.773 25.0153 62.8357 24.7769C62.8985 24.526 62.9424 24.319 62.9675 24.1559C62.8169 24.1559 62.6036 24.1684 62.3276 24.1935C62.0516 24.2186 61.763 24.2563 61.4619 24.3064C61.1734 24.3441 60.9225 24.3817 60.7092 24.4194C60.5084 24.4444 60.3955 24.4695 60.3704 24.4946C60.3203 24.5197 60.2513 24.6326 60.1634 24.8334C60.0882 25.0216 60.0066 25.2599 59.9188 25.5485C59.831 25.8245 59.762 26.1131 59.7118 26.4142C59.6114 26.8031 59.5424 27.2046 59.5048 27.6186C59.4671 28.0201 59.4546 28.3902 59.4671 28.7289C59.4797 29.0676 59.511 29.3374 59.5612 29.5381C59.6365 29.8392 59.6553 30.0839 59.6177 30.2721C59.5926 30.4603 59.5048 30.5857 59.3542 30.6484C59.1158 30.661 58.9026 30.4791 58.7144 30.1027C58.5387 29.7389 58.4509 29.2496 58.4509 28.6348C58.4007 28.1204 58.4446 27.468 58.5826 26.6776C58.7206 25.8747 58.9277 24.9776 59.2037 23.9865C59.304 23.6478 59.442 23.2463 59.6177 22.7821C59.7933 22.3179 59.9752 21.86 60.1634 21.4083C60.3642 20.9567 60.5398 20.5803 60.6904 20.2792C60.8409 19.9655 60.935 19.7899 60.9727 19.7522C61.0354 19.7648 61.0667 19.7522 61.0667 19.7146C61.0793 19.677 61.0856 19.633 61.0856 19.5829C61.0856 19.5578 61.1044 19.5076 61.142 19.4323C61.1922 19.357 61.2487 19.2629 61.3114 19.15C61.3867 19.0246 61.4557 18.8991 61.5184 18.7736C61.7693 18.4224 62.0767 18.0836 62.4405 17.7574C62.8169 17.4187 63.1619 17.1866 63.4756 17.0611C63.6638 16.9858 63.852 16.9482 64.0402 16.9482C64.3538 16.9482 64.6612 17.0862 64.9623 17.3622C65.2759 17.6257 65.4955 17.9205 65.6209 18.2467C65.8342 17.9958 66.0726 17.7386 66.3361 17.4751C66.5995 17.2117 66.8128 17.0172 66.9759 16.8917C67.2519 16.7537 67.4715 16.6596 67.6346 16.6095C67.7977 16.5593 68.011 16.5342 68.2744 16.5342C68.5128 16.5342 68.6696 16.5655 68.7449 16.6283C68.8327 16.6785 68.9582 16.7788 69.1213 16.9294C69.2969 17.1176 69.3973 17.243 69.4224 17.3058C69.4475 17.3685 69.46 17.4877 69.46 17.6633C69.4349 17.7888 69.3848 17.9456 69.3095 18.1338C69.2467 18.3094 69.1715 18.4914 69.0836 18.6796C68.9958 18.8552 68.908 19.0057 68.8202 19.1312C68.7449 19.2567 68.6822 19.3194 68.632 19.3194C68.4814 19.3696 68.3685 19.357 68.2932 19.2818C68.2305 19.1939 68.1992 19.0559 68.1992 18.8677C68.1992 18.7799 68.1741 18.6984 68.1239 18.6231C68.0862 18.5353 68.0674 18.4914 68.0674 18.4914C68.0674 18.4537 68.0737 18.391 68.0862 18.3032C68.1113 18.2028 68.149 18.1087 68.1992 18.0209C68.2619 17.8954 68.2744 17.8013 68.2368 17.7386C68.2117 17.6759 68.1301 17.6633 67.9921 17.701C67.9545 17.7261 67.8541 17.8013 67.691 17.9268C67.5279 18.0522 67.3523 18.1965 67.1641 18.3596C66.9885 18.5102 66.8316 18.6545 66.6936 18.7925C66.5556 18.9305 66.4866 19.0183 66.4866 19.0559C66.4866 19.0559 66.4615 19.1124 66.4113 19.2253C66.3612 19.3257 66.2671 19.4574 66.1291 19.6205C66.0412 19.746 65.9597 19.8714 65.8844 19.9969C65.8217 20.1098 65.7903 20.1788 65.7903 20.2039C65.7903 20.2541 65.784 20.3105 65.7715 20.3733C65.7715 20.4234 65.7401 20.4485 65.6774 20.4485C65.6774 20.4485 65.6586 20.505 65.6209 20.6179C65.5833 20.7308 65.5143 20.8751 65.4139 21.0507C65.3638 21.1762 65.301 21.3079 65.2257 21.4459C65.1505 21.5714 65.0877 21.6592 65.0376 21.7094H65.0564C65.0564 21.7094 65.025 21.791 64.9623 21.9541C64.9121 22.1046 64.8556 22.2677 64.7929 22.4434C64.7302 22.6065 64.6988 22.7005 64.6988 22.7256C64.6988 22.7633 64.749 22.7884 64.8494 22.8009C64.9623 22.8009 65.1003 22.7946 65.2634 22.7821C65.439 22.7695 65.6147 22.7445 65.7903 22.7068C65.9785 22.6692 66.1479 22.6315 66.2984 22.5939C66.4741 22.5437 66.5933 22.5186 66.656 22.5186C66.7187 22.5186 66.8442 22.5437 67.0324 22.5939C67.1829 22.6817 67.2958 22.8323 67.3711 23.0456C67.4589 23.2463 67.4778 23.378 67.4276 23.4408C67.415 23.4909 67.277 23.5599 67.0136 23.6478C66.7501 23.7356 66.4866 23.8046 66.2232 23.8548C65.9973 23.905 65.7213 23.9614 65.3951 24.0242C65.0815 24.0869 64.7992 24.1433 64.5483 24.1935C64.2973 24.2437 64.1719 24.2876 64.1719 24.3253C64.1217 24.3253 64.0778 24.3566 64.0402 24.4194C64.0025 24.4695 63.9837 24.5134 63.9837 24.5511C63.9837 24.7267 63.9586 24.8585 63.9084 24.9463C63.8833 25.0216 63.8394 25.1721 63.7767 25.3979C63.714 25.6238 63.645 25.8747 63.5697 26.1507C63.5069 26.4267 63.4505 26.6776 63.4003 26.9035C63.3627 27.1293 63.3438 27.2798 63.3438 27.3551C63.2686 27.4429 63.2247 27.5559 63.2121 27.6939C63.1996 27.8193 63.1933 27.9322 63.1933 28.0326C63.1431 28.133 63.1117 28.2271 63.0992 28.3149C63.0867 28.3902 63.0804 28.4529 63.0804 28.5031C63.0804 28.5156 63.0804 28.5407 63.0804 28.5784C63.0804 28.616 63.0741 28.6536 63.0616 28.6913C63.049 28.8167 63.0302 28.9798 63.0051 29.1806C62.9926 29.3938 62.9863 29.6009 62.9863 29.8016L62.9298 30.3473C62.9173 30.5104 62.8985 30.6484 62.8734 30.7614C62.8483 30.8868 62.8044 30.9809 62.7416 31.0436ZM61.0291 23.3278C61.0793 23.3278 61.2424 23.3153 61.5184 23.2902C61.7944 23.2526 62.1081 23.2087 62.4594 23.1585C62.8232 23.1083 63.1494 23.0644 63.4379 23.0267L63.5509 22.8197C63.739 22.2928 63.8959 21.8537 64.0213 21.5024C64.1468 21.1386 64.2723 20.8249 64.3977 20.5615L64.4353 20.3921C64.4353 20.367 64.4604 20.2917 64.5106 20.1663C64.5734 20.0408 64.6047 19.9153 64.6047 19.7899C64.6925 19.3633 64.7365 19.0308 64.7365 18.7925C64.749 18.5541 64.7051 18.3847 64.6047 18.2844C64.5169 18.1714 64.3601 18.115 64.1342 18.115C64.0715 18.1024 63.9711 18.1213 63.8331 18.1714C63.7077 18.2216 63.5885 18.2844 63.4756 18.3596C63.3752 18.4224 63.325 18.4851 63.325 18.5478V18.6231C63.2874 18.6105 63.1682 18.7172 62.9675 18.943C62.7793 19.1563 62.566 19.4198 62.3276 19.7334C62.1018 20.0345 61.9136 20.3105 61.763 20.5615C61.6627 20.7747 61.5435 21.0696 61.4055 21.4459C61.2675 21.8223 61.0918 22.2865 60.8786 22.8386L60.728 23.2902L61.0291 23.3278ZM68.3685 28.4654C68.1803 28.4403 68.0172 28.3086 67.8792 28.0702C67.7538 27.8193 67.6785 27.5935 67.6534 27.3928C67.6659 27.2924 67.6785 27.1481 67.691 26.9599C67.7161 26.7717 67.7412 26.5773 67.7663 26.3765C67.8165 26.1382 67.8855 25.8496 67.9733 25.5109C68.0611 25.1596 68.149 24.8083 68.2368 24.457C68.3372 24.1057 68.425 23.8046 68.5003 23.5537C68.5755 23.3028 68.6257 23.1522 68.6508 23.102C68.6884 23.0393 68.7449 23.0142 68.8202 23.0267C68.908 23.0267 68.9958 23.0518 69.0836 23.102C69.1715 23.1397 69.2405 23.1898 69.2907 23.2526C69.3659 23.3529 69.4098 23.4721 69.4224 23.6101C69.4475 23.7481 69.4287 23.9489 69.3659 24.2123C69.3157 24.4758 69.2154 24.8647 69.0648 25.3791C68.9268 25.881 68.8202 26.2887 68.7449 26.6024C68.6822 26.9035 68.6571 27.2234 68.6696 27.5621C68.632 27.8381 68.6006 28.0451 68.5755 28.1832C68.563 28.3086 68.5379 28.3902 68.5003 28.4278C68.4752 28.4529 68.4313 28.4654 68.3685 28.4654ZM70.2692 21.6153C70.2442 21.6404 70.2128 21.6592 70.1752 21.6718C70.1501 21.6718 70.1124 21.6655 70.0622 21.653C70.0246 21.6279 69.9744 21.5965 69.9117 21.5589C69.8239 21.5463 69.7109 21.4899 69.5729 21.3895C69.4475 21.2766 69.3346 21.1637 69.2342 21.0507C69.1464 20.9253 69.1025 20.85 69.1025 20.8249C69.0899 20.6995 69.0962 20.5426 69.1213 20.3544C69.1589 20.1537 69.2279 19.9781 69.3283 19.8275C69.4287 19.6644 69.5729 19.5766 69.7611 19.564C69.8113 19.564 69.8552 19.5703 69.8929 19.5829C69.9305 19.5954 70.0434 19.6393 70.2316 19.7146C70.332 19.9028 70.4323 20.1161 70.5327 20.3544C70.6331 20.5803 70.677 20.8061 70.6644 21.0319C70.6519 21.2452 70.5202 21.4397 70.2692 21.6153ZM72.4955 29.1053C71.9435 29.1053 71.4918 28.8983 71.1405 28.4843C70.7892 28.0577 70.6198 27.5308 70.6324 26.9035C70.6575 26.4518 70.7453 25.9688 70.8959 25.4544C71.059 24.9275 71.2722 24.4256 71.5357 23.9489C71.7992 23.4596 72.0877 23.033 72.4014 22.6692C72.715 22.3053 73.0412 22.0482 73.38 21.8976C73.5054 21.8349 73.6372 21.7847 73.7752 21.747C73.9257 21.7094 74.0763 21.6906 74.2268 21.6906C74.3648 21.6906 74.5091 21.7157 74.6597 21.7659C74.8102 21.8035 74.9357 21.8474 75.036 21.8976C75.2493 21.9854 75.4124 22.0921 75.5253 22.2175C75.6383 22.343 75.7386 22.5374 75.8264 22.8009C75.8641 23.0393 75.8829 23.2087 75.8829 23.309C75.8829 23.4094 75.8515 23.5599 75.7888 23.7607C75.6383 24.2123 75.4438 24.6013 75.2054 24.9275C74.967 25.2537 74.6471 25.5297 74.2456 25.7555C74.1453 25.8182 74.0261 25.8684 73.8881 25.9061C73.7626 25.9311 73.6309 25.9437 73.4929 25.9437C73.242 25.9437 72.9973 25.8998 72.7589 25.812C72.5331 25.7116 72.3512 25.5673 72.2132 25.3791L72.0815 25.2286L72.025 25.3791C71.8995 25.7179 71.7992 26.0315 71.7239 26.3201C71.6612 26.6086 71.6298 26.8721 71.6298 27.1105C71.6298 27.261 71.6423 27.4053 71.6674 27.5433C71.7051 27.6813 71.7553 27.8005 71.818 27.9009C71.8682 27.9761 71.9497 28.0326 72.0626 28.0702C72.1881 28.0953 72.3198 28.1079 72.4578 28.1079C72.5457 28.1079 72.6335 28.1079 72.7213 28.1079C72.8217 28.0953 72.9158 28.0702 73.0036 28.0326C73.2169 27.9573 73.3862 27.8758 73.5117 27.788C73.6497 27.7001 73.7877 27.606 73.9257 27.5057L74.001 27.468H73.9822C74.1327 27.3928 74.2645 27.3175 74.3774 27.2422C74.5028 27.1669 74.5656 27.1293 74.5656 27.1293C74.6158 27.1293 74.6659 27.0979 74.7161 27.0352C74.8165 26.985 74.9419 27.0038 75.0925 27.0917C75.2556 27.1795 75.3371 27.2924 75.3371 27.4304C75.3246 27.4931 75.2681 27.5935 75.1678 27.7315C75.0674 27.857 74.9545 27.9761 74.829 28.0891C74.7161 28.202 74.622 28.2647 74.5467 28.2772C74.5342 28.2898 74.4903 28.3149 74.415 28.3525C74.3397 28.3776 74.2896 28.4027 74.2645 28.4278H74.2833C74.1704 28.5784 74.0575 28.6536 73.9445 28.6536H73.794C73.7438 28.7415 73.5807 28.8418 73.3047 28.9547C73.0287 29.0551 72.7589 29.1053 72.4955 29.1053ZM73.3423 24.9651C73.5682 24.9651 73.7626 24.9024 73.9257 24.7769C74.1014 24.6389 74.2519 24.4884 74.3774 24.3253C74.6283 23.9865 74.7726 23.6603 74.8102 23.3467C74.8604 23.0205 74.8228 22.7946 74.6973 22.6692C74.622 22.6315 74.553 22.6127 74.4903 22.6127C74.4401 22.6002 74.3335 22.619 74.1704 22.6692C74.0575 22.6943 73.9006 22.7884 73.6999 22.9515C73.4992 23.1146 73.2984 23.2965 73.0977 23.4972C72.9095 23.698 72.7652 23.8673 72.6648 24.0053L72.4202 24.4005C72.5206 24.3629 72.6147 24.3441 72.7025 24.3441C72.8029 24.3315 72.8593 24.3378 72.8719 24.3629C72.8719 24.4758 72.8907 24.5824 72.9283 24.6828C72.9785 24.7706 73.035 24.8396 73.0977 24.8898C73.173 24.94 73.2545 24.9651 73.3423 24.9651Z" fill="#0A0115"/>
<defs>
<linearGradient id="paint0_linear_375_5805" x1="21.6762" y1="33.3077" x2="19.6483" y2="39.9168" gradientUnits="userSpaceOnUse">
<stop stop-color="#F7CB45"/>
<stop offset="1" stop-color="#BF4F26"/>
</linearGradient>
<linearGradient id="paint1_linear_375_5805" x1="33.4345" y1="15.3344" x2="25.0277" y2="45.6192" gradientUnits="userSpaceOnUse">
<stop stop-color="#F7CB45"/>
<stop offset="1" stop-color="#BF4F26"/>
</linearGradient>
<clipPath id="clip0_375_5805">
<rect width="43.533" height="39.0307" fill="white" transform="translate(0.214844)"/>
</clipPath>
</defs>
</svg>
