<svg width="142" height="34" viewBox="0 0 142 34" fill="none" xmlns="http://www.w3.org/2000/svg">
<g clip-path="url(#clip0_375_5720)">
<path d="M11.1641 32.6837C12.6969 27.8292 18.8645 19.2241 30.9519 24.3081C29.6236 28.5794 22.7785 35.9672 11.1641 32.6837Z" fill="black"/>
<path d="M1.24547 11.6299C-1.05378 16.0652 -1.06688 26.7894 9.12856 31.8205C12.019 26.988 13.0044 14.675 1.24547 11.6299Z" fill="black"/>
<path d="M21.8391 1.39332C20.2878 6.24194 14.0875 14.8232 2.01953 9.69253C3.36406 5.42639 10.2373 -1.93495 21.8391 1.39332Z" fill="black"/>
<path d="M31.677 22.4836C33.9931 18.0572 34.047 7.33309 23.8707 2.2627C20.9619 7.08401 19.9298 19.3931 31.677 22.4836Z" fill="black"/>
<path d="M47.5102 25.8299C45.1818 25.8299 43.4401 25.2615 42.2851 24.1249C41.1484 22.9882 40.5801 21.3749 40.5801 19.2848V13.7022C40.5801 11.5939 41.1484 9.98056 42.2851 8.86226C43.4401 7.72555 45.1818 7.15721 47.5102 7.15721C49.8385 7.15721 51.5802 7.72555 52.7352 8.86226C53.8902 9.98056 54.4677 11.5939 54.4677 13.7022V19.2848C54.4677 21.3749 53.8902 22.9882 52.7352 24.1249C51.5802 25.2615 49.8385 25.8299 47.5102 25.8299ZM47.5102 23.5199C48.9402 23.5199 50.0218 23.1532 50.7552 22.4198C51.4885 21.6865 51.8551 20.614 51.8551 19.2023V13.7848C51.8551 12.3547 51.4885 11.2822 50.7552 10.5672C50.0218 9.83392 48.9402 9.46724 47.5102 9.46724C46.1168 9.46724 45.0443 9.83392 44.2926 10.5672C43.5593 11.2822 43.1926 12.3547 43.1926 13.7848V19.2023C43.1926 20.614 43.5593 21.6865 44.2926 22.4198C45.0443 23.1532 46.1168 23.5199 47.5102 23.5199ZM64.6024 25.8299C63.924 25.8299 63.209 25.7382 62.4574 25.5549C61.7057 25.3716 61.1007 25.1332 60.6424 24.8399L60.5599 22.6674C61.0732 22.9607 61.6324 23.1899 62.2373 23.3548C62.8607 23.5016 63.4382 23.5749 63.9699 23.5749C64.9782 23.5749 65.7115 23.2815 66.1699 22.6949C66.6465 22.0898 66.8849 21.1915 66.8849 19.9998V17.0298C66.8849 15.9848 66.7015 15.224 66.3349 14.7473C65.9866 14.2523 65.4458 14.0048 64.7124 14.0048C64.089 14.0048 63.4565 14.1881 62.8149 14.5547C62.1915 14.9214 61.394 15.554 60.4223 16.4523L60.3673 14.1698C60.9723 13.6197 61.5407 13.1614 62.0724 12.7947C62.604 12.4281 63.1357 12.1623 63.6674 11.9973C64.2174 11.8139 64.7949 11.7223 65.3999 11.7223C66.7565 11.7223 67.7741 12.1348 68.4524 12.9598C69.1491 13.7848 69.4974 15.0497 69.4974 16.7548V20.3023C69.4974 22.099 69.0758 23.474 68.2324 24.4274C67.4074 25.3624 66.1974 25.8299 64.6024 25.8299ZM58.6348 30.5874C58.4515 30.5874 58.3599 30.4866 58.3599 30.2849V15.2148C58.3599 14.7748 58.3415 14.2981 58.3048 13.7848C58.2681 13.2714 58.2223 12.8039 58.1673 12.3822C58.149 12.1623 58.2406 12.0523 58.4423 12.0523H60.3123C60.514 12.0523 60.624 12.1439 60.6424 12.3272C60.679 12.4556 60.7157 12.6389 60.7524 12.8773C60.789 13.1156 60.8165 13.354 60.8348 13.5923C60.8532 13.8123 60.8532 13.9773 60.8348 14.0872L60.9723 15.5173V30.2849C60.9723 30.4866 60.8715 30.5874 60.6699 30.5874H58.6348ZM78.0527 25.8299C77.0807 25.8299 76.3017 25.674 75.7148 25.3624C75.1279 25.0324 74.7066 24.5374 74.4501 23.8773C74.1929 23.2174 74.0651 22.3923 74.0651 21.4023V14.2798H71.9748C71.7732 14.2798 71.6723 14.179 71.6723 13.9773V12.3272C71.6723 12.1439 71.7732 12.0523 71.9748 12.0523H74.1197L74.4501 8.7522C74.4679 8.55057 74.578 8.44975 74.7798 8.44975H76.3748C76.5581 8.44975 76.6498 8.55057 76.6498 8.7522L76.6771 12.0523H80.6648C80.8665 12.0523 80.9671 12.1439 80.9671 12.3272V13.9773C80.9671 14.179 80.8665 14.2798 80.6648 14.2798H76.6771V21.2924C76.6771 22.1173 76.8242 22.704 77.1177 23.0523C77.4104 23.4007 77.9056 23.5749 78.6026 23.5749C78.9692 23.5749 79.3262 23.5382 79.6751 23.4648C80.0417 23.3732 80.3624 23.2632 80.6374 23.1349C80.7475 23.0982 80.8296 23.0982 80.885 23.1349C80.9582 23.1715 80.9951 23.2449 80.9951 23.3548V25.0324C80.9951 25.1973 80.9124 25.3074 80.7475 25.3624C80.4171 25.4907 80.0232 25.6007 79.5649 25.6923C79.1251 25.7841 78.6211 25.8299 78.0527 25.8299ZM88.7494 25.8299C86.9163 25.8299 85.5223 25.4082 84.5696 24.5649C83.6161 23.7215 83.1394 22.484 83.1394 20.8524V17.1123C83.1394 15.3523 83.6065 14.0139 84.5415 13.0973C85.495 12.1806 86.8882 11.7223 88.722 11.7223C90.5551 11.7223 91.9394 12.1714 92.8744 13.0698C93.8279 13.9681 94.3047 15.2698 94.3047 16.9748V19.1198C94.3047 19.3031 94.213 19.3948 94.0297 19.3948H85.7241V20.2748C85.7241 21.4298 85.9717 22.2732 86.4669 22.8048C86.9621 23.3365 87.7589 23.6024 88.8595 23.6024C89.6844 23.6024 90.3171 23.474 90.7568 23.2174C91.2151 22.9423 91.4442 22.539 91.4442 22.0073C91.4442 21.8057 91.5455 21.7048 91.7465 21.7048H93.7821C93.9284 21.7048 94.0201 21.7874 94.057 21.9523C94.1302 23.1807 93.6904 24.134 92.737 24.8123C91.802 25.4907 90.473 25.8299 88.7494 25.8299ZM85.7241 17.3323H91.7192V17.1948C91.7192 16.0765 91.4716 15.2606 90.9771 14.7473C90.4819 14.2156 89.7487 13.9498 88.7767 13.9498C87.7501 13.9498 86.9799 14.2248 86.4669 14.7748C85.9717 15.3064 85.7241 16.1223 85.7241 17.2223V17.3323ZM96.0845 25.4999C95.9744 25.4999 95.9004 25.4632 95.8642 25.3899C95.8273 25.3166 95.8458 25.234 95.9189 25.1423L100.622 18.5698L96.222 12.3822C96.1481 12.2906 96.1303 12.2172 96.1665 12.1623C96.222 12.0889 96.304 12.0523 96.4141 12.0523H98.8341C98.9811 12.0523 99.0905 12.1073 99.1644 12.2172L100.979 14.8573C101.181 15.169 101.391 15.499 101.612 15.8473C101.85 16.1956 102.061 16.5256 102.244 16.8373H102.272C102.51 16.489 102.748 16.1406 102.986 15.7923C103.225 15.4256 103.463 15.0681 103.702 14.7198L105.406 12.2172C105.498 12.1073 105.618 12.0523 105.764 12.0523H108.047C108.175 12.0523 108.257 12.0889 108.294 12.1623C108.331 12.2172 108.313 12.2906 108.239 12.3822L103.839 18.5148L108.625 25.1423C108.698 25.234 108.707 25.3166 108.652 25.3899C108.615 25.4632 108.542 25.4999 108.432 25.4999H106.012C105.865 25.4999 105.755 25.4449 105.681 25.3349L103.949 22.8598C103.656 22.4382 103.363 22.0165 103.069 21.5948C102.794 21.1548 102.51 20.724 102.216 20.3023H102.189C101.932 20.724 101.658 21.1548 101.364 21.5948C101.089 22.0165 100.814 22.4382 100.539 22.8598L98.8341 25.3349C98.7978 25.4082 98.7424 25.454 98.6692 25.4724C98.6138 25.4907 98.5502 25.4999 98.4763 25.4999H96.0845ZM111.192 25.4999C111.008 25.4999 110.917 25.399 110.917 25.1973V12.3272C110.917 12.1439 111.008 12.0523 111.192 12.0523H113.226C113.428 12.0523 113.529 12.1439 113.529 12.3272V25.1973C113.529 25.399 113.428 25.4999 113.226 25.4999H111.192ZM112.209 9.87975C111.659 9.87975 111.246 9.7331 110.971 9.43974C110.715 9.14638 110.586 8.76137 110.586 8.2847V7.98225C110.586 7.50559 110.715 7.12055 110.971 6.82721C111.246 6.53387 111.659 6.38721 112.209 6.38721C112.777 6.38721 113.189 6.53387 113.447 6.82721C113.703 7.12055 113.832 7.50559 113.832 7.98225V8.2847C113.832 8.76137 113.703 9.14638 113.447 9.43974C113.189 9.7331 112.777 9.87975 112.209 9.87975ZM122.364 25.8299C121.392 25.8299 120.613 25.674 120.026 25.3624C119.44 25.0324 119.018 24.5374 118.762 23.8773C118.505 23.2174 118.377 22.3923 118.377 21.4023V14.2798H116.286C116.085 14.2798 115.984 14.179 115.984 13.9773V12.3272C115.984 12.1439 116.085 12.0523 116.286 12.0523H118.431L118.762 8.7522C118.78 8.55057 118.89 8.44975 119.091 8.44975H120.686C120.87 8.44975 120.961 8.55057 120.961 8.7522L120.989 12.0523H124.977C125.178 12.0523 125.279 12.1439 125.279 12.3272V13.9773C125.279 14.179 125.178 14.2798 124.977 14.2798H120.989V21.2924C120.989 22.1173 121.136 22.704 121.429 23.0523C121.723 23.4007 122.218 23.5749 122.914 23.5749C123.281 23.5749 123.639 23.5382 123.987 23.4648C124.353 23.3732 124.674 23.2632 124.949 23.1349C125.059 23.0982 125.142 23.0982 125.197 23.1349C125.27 23.1715 125.307 23.2449 125.307 23.3548V25.0324C125.307 25.1973 125.224 25.3074 125.059 25.3624C124.729 25.4907 124.335 25.6007 123.877 25.6923C123.437 25.7841 122.933 25.8299 122.364 25.8299ZM130.353 30.5874C130.133 30.5874 130.068 30.4682 130.16 30.2299L132.085 25.3624L127.025 12.3822C126.934 12.1623 126.998 12.0523 127.217 12.0523H129.445C129.591 12.0523 129.693 12.1256 129.747 12.2722L132.085 18.6248C132.305 19.1932 132.516 19.789 132.718 20.4124C132.919 21.0173 133.112 21.6223 133.295 22.2274H133.35C133.533 21.6223 133.735 21.0173 133.955 20.4124C134.175 19.8073 134.386 19.2115 134.588 18.6248L136.898 12.2722C136.952 12.1256 137.071 12.0523 137.256 12.0523H139.372C139.464 12.0523 139.528 12.0889 139.565 12.1623C139.62 12.2172 139.63 12.2906 139.593 12.3822L132.69 30.3674C132.635 30.5141 132.534 30.5874 132.388 30.5874H130.353Z" fill="black"/>
</g>
<defs>
<clipPath id="clip0_375_5720">
<rect width="141.174" height="34" fill="white"/>
</clipPath>
</defs>
</svg>
