<svg width="41" height="25" viewBox="0 0 41 25" fill="none" xmlns="http://www.w3.org/2000/svg">
<rect y="0.778778" width="4.01733" height="4.52581" fill="black" fill-opacity="0.7"/>
<rect x="4.01758" y="5.3047" width="4.01733" height="4.52581" fill="black" fill-opacity="0.7"/>
<rect x="8.03516" y="9.83057" width="4.01733" height="4.52581" fill="black" fill-opacity="0.7"/>
<rect x="12.0508" y="14.3562" width="4.01733" height="4.52581" fill="black" fill-opacity="0.7"/>
<rect x="16.0693" y="18.8821" width="4.01733" height="4.52581" fill="black" fill-opacity="0.7"/>
<rect y="18.8821" width="4.01733" height="4.52581" fill="black" fill-opacity="0.7"/>
<rect x="4.01758" y="14.3562" width="4.01733" height="4.52581" fill="black" fill-opacity="0.7"/>
<rect x="12.0508" y="5.30467" width="4.01733" height="4.52581" fill="black" fill-opacity="0.7"/>
<rect x="16.0693" y="0.778778" width="4.01733" height="4.52581" fill="black" fill-opacity="0.7"/>
<rect x="25.877" y="2.01575" width="3.57823" height="4.03113" fill="black"/>
<rect x="38.4004" y="22.1713" width="3.57823" height="4.03113" transform="rotate(180 38.4004 22.1713)" fill="black"/>
<rect x="24.0869" y="4.0312" width="3.57823" height="16.1245" fill="black"/>
<rect x="34.8223" y="2.01575" width="3.57823" height="4.03113" fill="black"/>
<rect x="29.4541" y="22.1713" width="3.57823" height="4.03113" transform="rotate(180 29.4541 22.1713)" fill="black"/>
<rect x="36.6113" y="4.0312" width="3.57823" height="16.1245" fill="black"/>
<rect x="29.4541" width="5.36734" height="4.03113" fill="black"/>
<rect x="34.8223" y="24.1868" width="5.36734" height="4.03113" transform="rotate(180 34.8223 24.1868)" fill="black"/>
<rect x="33.0322" y="6.04672" width="1.78911" height="2.01556" fill="black"/>
<rect x="34.8223" y="6.04672" width="1.78911" height="2.01556" fill="black"/>
<rect x="33.0322" y="8.06218" width="1.78911" height="2.01556" fill="black"/>
<rect x="31.2441" y="8.43188" width="1.78911" height="2.01556" fill="black"/>
<rect x="31.2441" y="10.0779" width="1.78911" height="2.01556" fill="black"/>
<rect x="29.4541" y="12.0934" width="1.78911" height="2.01556" fill="black"/>
<rect x="29.4541" y="14.1089" width="1.78911" height="2.01556" fill="black"/>
<rect x="29.4541" y="16.1246" width="1.78911" height="2.01556" fill="black"/>
<rect x="27.665" y="16.1246" width="1.78911" height="2.01556" fill="black"/>
<rect x="31.2441" y="12.0934" width="1.78911" height="2.01556" fill="black"/>
</svg>
